<svg width="100%" height="100%" viewBox="0 0 716 174" version="1.1" xmlns="http://www.w3.org/2000/svg" xmlns:xlink="http://www.w3.org/1999/xlink" xml:space="preserve" style="fill-rule:evenodd;clip-rule:evenodd;stroke-linejoin:round;stroke-miterlimit:2;">
    <g transform="matrix(1,0,0,1,-9026.69,-452.626)">
        <g transform="matrix(1,0,0,1,8855.43,0)">
            <g id="Logo" transform="matrix(0.576155,0,0,0.576155,52.837,235.109)">
                <g id="Descriptor" transform="matrix(1.74452,0,0,1.74452,303.443,-738.306)">
                    <rect x="273.9" y="790.885" width="2.836" height="21.06" style="fill-rule:nonzero;"></rect>
                    <path d="M304.139,806.107L295.932,790.885L293.179,790.885L293.179,811.945L296.015,811.945L296.015,796.601L304.304,811.945L306.975,811.945L306.975,790.885L304.139,790.885L304.139,806.107Z" style="fill-rule:nonzero;"></path>
                    <path d="M321.407,790.885L321.407,793.758L327.052,793.758L327.052,811.945L329.889,811.945L329.889,793.758L335.534,793.758L335.534,790.885L321.407,790.885Z" style="fill-rule:nonzero;"></path>
                    <path d="M352.775,803.05L360.237,803.05L360.237,800.147L352.775,800.147L352.775,793.758L361.339,793.758L361.339,790.885L349.966,790.885L349.966,811.945L361.587,811.945L361.587,809.072L352.775,809.072L352.775,803.05Z" style="fill-rule:nonzero;"></path>
                    <path d="M390.118,811.945L385.134,804.09C388.301,803.753 389.953,800.574 389.953,797.548C389.953,794.217 388.273,790.885 384.115,790.885L376.873,790.885L376.873,811.945L379.709,811.945L379.709,804.09L381.857,804.09L386.731,811.945L390.118,811.945ZM384.088,793.758C385.933,793.758 387.117,795.348 387.117,797.548C387.117,799.78 386.043,801.339 383.427,801.339L379.709,801.339L379.709,793.758L384.088,793.758Z" style="fill-rule:nonzero;"></path>
                    <rect x="405.294" y="790.885" width="2.836" height="21.06" style="fill-rule:nonzero;"></rect>
                    <path d="M432.889,812.312C438.314,812.312 442.527,807.421 442.527,801.461C442.527,795.47 438.314,790.518 432.889,790.518C427.492,790.518 423.306,795.47 423.306,801.461C423.306,807.421 427.492,812.312 432.889,812.312ZM432.889,809.378C429.034,809.378 426.142,805.771 426.142,801.461C426.142,797.12 429.034,793.453 432.889,793.453C436.772,793.453 439.691,797.12 439.691,801.461C439.691,805.771 436.772,809.378 432.889,809.378Z" style="fill-rule:nonzero;"></path>
                    <path d="M470.948,811.945L465.964,804.09C469.131,803.753 470.783,800.574 470.783,797.548C470.783,794.217 469.103,790.885 464.945,790.885L457.703,790.885L457.703,811.945L460.539,811.945L460.539,804.09L462.687,804.09L467.561,811.945L470.948,811.945ZM464.918,793.758C466.763,793.758 467.947,795.348 467.947,797.548C467.947,799.78 466.873,801.339 464.257,801.339L460.539,801.339L460.539,793.758L464.918,793.758Z" style="fill-rule:nonzero;"></path>
                    <path d="M505.404,790.885L505.404,811.945L512.784,811.945C518.209,811.945 521.376,807.421 521.376,801.461C521.376,795.47 518.209,790.885 512.784,790.885L505.404,790.885ZM508.24,809.072L508.24,793.758L512.784,793.758C516.584,793.758 518.539,797.182 518.539,801.461C518.539,805.74 516.584,809.072 512.784,809.072L508.24,809.072Z" style="fill-rule:nonzero;"></path>
                    <path d="M539.443,803.05L546.906,803.05L546.906,800.147L539.443,800.147L539.443,793.758L548.007,793.758L548.007,790.885L536.634,790.885L536.634,811.945L548.255,811.945L548.255,809.072L539.443,809.072L539.443,803.05Z" style="fill-rule:nonzero;"></path>
                    <path d="M569.103,812.312C572.931,812.312 575.52,809.469 575.52,805.954C575.52,802.867 573.509,801.064 570.315,800.116L567.919,799.382C565.524,798.679 565.331,797.304 565.331,796.631C565.331,794.706 566.928,793.391 568.718,793.391C570.673,793.391 572.077,794.767 572.077,796.754L574.886,796.754C574.886,792.902 572.215,790.518 568.8,790.518C565.441,790.518 562.494,792.994 562.494,796.693C562.494,798.435 563.155,801.094 567.203,802.225L569.627,802.898C571.169,803.356 572.683,804.242 572.683,806.107C572.683,807.849 571.361,809.439 569.103,809.439C566.735,809.439 565.221,807.696 565.166,805.893L562.357,805.893C562.357,809.286 565.055,812.312 569.103,812.312Z" style="fill-rule:nonzero;"></path>
                    <rect x="590.613" y="790.885" width="2.836" height="21.06" style="fill-rule:nonzero;"></rect>
                    <path d="M618.29,812.312C623.66,812.312 627.268,808.766 627.268,801.278L618.704,801.278L618.704,803.967L624.156,803.967C624.156,807.055 621.457,809.408 618.263,809.408C614.408,809.408 611.461,805.771 611.461,801.461C611.461,797.12 614.408,793.422 618.235,793.422C619.998,793.422 621.622,794.217 622.807,795.439L624.789,793.422C623.137,791.649 620.824,790.518 618.235,790.518C612.838,790.518 608.625,795.47 608.625,801.461C608.625,807.421 612.811,812.312 618.29,812.312Z" style="fill-rule:nonzero;"></path>
                    <path d="M653.018,806.107L644.812,790.885L642.058,790.885L642.058,811.945L644.894,811.945L644.894,796.601L653.183,811.945L655.854,811.945L655.854,790.885L653.018,790.885L653.018,806.107Z" style="fill-rule:nonzero;"></path>
                </g>
                <g id="Studio" transform="matrix(5.03348,0,0,5.03348,-531.652,-1122)">
                    <path d="M273.324,340.763C281.432,340.763 285.756,334.463 285.756,328.643C285.756,322.643 281.702,319.223 275.81,317.603L270.729,316.163C265.215,314.663 264.675,311.423 264.675,309.503C264.675,304.883 268.621,301.703 272.837,301.703C277.269,301.703 280.729,304.643 280.945,309.203L284.459,309.203C284.242,302.303 279.269,297.983 272.945,297.983C266.783,297.983 261.107,302.663 261.107,309.503C261.107,312.803 262.188,317.783 269.918,319.823L274.945,321.143C278.621,322.163 282.188,324.323 282.188,328.823C282.188,332.723 279.269,337.043 273.324,337.043C268.08,337.043 264.675,333.143 264.351,329.063L260.837,329.063C261.107,335.063 265.972,340.763 273.324,340.763Z" style="fill-rule:nonzero;"></path>
                    <path d="M295.138,312.023L295.138,301.523L291.732,301.523L291.732,312.023L287.138,312.023L287.138,315.323L291.732,315.323L291.732,340.043L295.138,340.043L295.138,315.323L300.921,315.323L300.921,312.023L295.138,312.023Z" style="fill-rule:nonzero;"></path>
                    <path d="M322.489,327.683C322.435,334.463 318.111,337.103 314.111,337.103C310.002,337.103 306.975,333.683 306.975,328.283L306.975,312.023L303.516,312.023L303.516,328.343C303.462,336.083 307.624,340.763 313.732,340.763C316.867,340.763 320.975,339.083 322.489,335.123L322.489,340.043L325.948,340.043L325.948,312.023L322.489,312.023L322.489,327.683Z" style="fill-rule:nonzero;"></path>
                    <g transform="matrix(1,0,0,1,-1.03446,0)">
                        <path d="M353.3,317.423C351.408,313.583 347.516,311.303 343.246,311.303C336.165,311.303 330.435,317.483 330.435,326.003C330.435,334.523 336.219,340.763 343.246,340.763C347.462,340.763 351.408,338.423 353.3,334.583L353.3,340.043L356.759,340.043L356.759,297.911L353.3,297.911L353.3,317.423ZM343.516,337.103C338.219,337.103 333.894,332.183 333.894,325.943C333.894,319.763 338.219,314.963 343.516,314.963C348.543,314.963 353.3,319.343 353.3,326.123C353.3,332.603 348.759,337.103 343.516,337.103Z" style="fill-rule:nonzero;"></path>
                    </g>
                    <g transform="matrix(1,0,0,1,-3.10338,0)">
                        <path d="M364.705,303.371C366.219,303.371 367.408,302.231 367.408,300.671C367.408,299.051 366.219,297.911 364.705,297.911C363.3,297.911 362.056,299.051 362.056,300.671C362.056,302.231 363.3,303.371 364.705,303.371ZM366.435,340.043L366.435,312.023L362.975,312.023L362.975,340.043L366.435,340.043Z" style="fill-rule:nonzero;"></path>
                    </g>
                    <g transform="matrix(1,0,0,1,-4.13784,0)">
                        <path d="M384.11,340.763C391.3,340.763 397.354,334.883 397.354,326.003C397.354,317.123 391.3,311.303 384.11,311.303C376.921,311.303 370.921,317.123 370.921,326.003C370.921,334.883 376.921,340.763 384.11,340.763ZM384.11,337.103C378.759,337.103 374.381,332.603 374.381,326.003C374.381,319.403 378.759,314.963 384.11,314.963C389.408,314.963 393.894,319.403 393.894,326.003C393.894,332.603 389.408,337.103 384.11,337.103Z" style="fill-rule:nonzero;"></path>
                    </g>
                </g>
                <g id="ARD" transform="matrix(0.678314,0,0,0.678314,108.751,150.273)">
                    <g transform="matrix(1,0,0,1,768.735,652.272)">
                        <path d="M1.36,-317.236L-96.014,-317.236C-69.107,-300.645 -48.127,-275.865 -38.888,-245.082L-8.012,-245.082C43.526,-245.082 74.031,-212.238 74.031,-159.295C74.031,-106.353 42.166,-71.406 -9.372,-71.406L-102.851,-71.406L-18.16,0.748L0,0.748C91.832,0.748 161.172,-60.439 161.172,-159.295C161.172,-258.157 93.192,-317.236 1.36,-317.236" style="fill-rule:nonzero;"></path>
                    </g>
                    <g transform="matrix(1,0,0,1,611.141,423.025)">
                        <path d="M0,139.659C65.412,129.989 101.892,87.441 101.892,28.704C101.892,-37.774 55.979,-87.99 -26.763,-87.99L-120.159,-87.99L-120.159,-14.338L-31.065,-14.338C-1.414,-14.338 14.372,1.92 14.372,28.704C14.372,55.488 -2.035,68.925 -31.686,68.925L-120.78,68.925L-120.78,141.418L-120.647,141.418L-16.684,229.994L106.024,229.994L0,139.659Z" style="fill-rule:nonzero;"></path>
                    </g>
                    <g transform="matrix(1,0,0,1,303.548,653.016)">
                        <path d="M0,-317.981C-91.653,-317.981 -160.859,-257.655 -160.859,-158.988C-160.859,-60.321 -91.653,0 0,0L59.511,0L59.511,-72.011L9.352,-72.011C-42.084,-72.011 -73.882,-106.148 -73.882,-158.988C-73.882,-211.829 -42.084,-245.97 9.352,-245.97L79.989,-245.97L79.989,0L165.094,0L165.094,-317.981L0,-317.981Z" style="fill-rule:nonzero;"></path>
                    </g>
                </g>
            </g>
        </g>
    </g>
</svg>
