<svg width="100%" height="100%" viewBox="0 0 630 152" version="1.1" xmlns="http://www.w3.org/2000/svg" xmlns:xlink="http://www.w3.org/1999/xlink" xml:space="preserve" style="fill-rule:evenodd;clip-rule:evenodd;stroke-miterlimit:10;">
    <g transform="matrix(1.0003,0,0,1.0003,0,0.00709357)">
        <path d="M87.5,110.05L106.99,110.05L106.99,105.81L116.31,105.81L116.31,110.05L131.21,110.05L131.21,32L87.5,32L87.5,110.05Z" style="fill:none;fill-rule:nonzero;stroke:rgb(149,149,149);stroke-width:0.5px;"></path>
    </g>
    <g transform="matrix(1.0003,0,0,1.0003,0,0.00709357)">
        <path d="M174.92,110.05L193.41,110.05L193.41,105.81L202.73,105.81L202.73,110.05L217.63,110.05L217.63,20.99L174.92,20.99L174.92,110.05Z" style="fill:none;fill-rule:nonzero;stroke:rgb(149,149,149);stroke-width:0.5px;"></path>
    </g>
    <g transform="matrix(1.0003,0,0,1.0003,0,0.00709357)">
        <path d="M434.19,110.05L451.68,110.05L451.68,105.81L461,105.81L461,110.05L476.9,110.05L476.9,38.35L434.19,38.35L434.19,110.05Z" style="fill:none;fill-rule:nonzero;stroke:rgb(149,149,149);stroke-width:0.5px;"></path>
    </g>
    <g transform="matrix(1.0003,0,0,1.0003,0,0.00709357)">
        <path d="M476.9,110.05L492.39,110.05L492.39,105.81L501.71,105.81L501.71,110.05L518.61,110.05L518.61,38.35L476.9,38.35L476.9,110.05Z" style="fill:none;fill-rule:nonzero;stroke:rgb(149,149,149);stroke-width:0.5px;"></path>
    </g>
    <g transform="matrix(1.0003,0,0,1.0003,0,0.00709357)">
        <path d="M518.61,110.05L537.1,110.05L537.1,105.81L546.43,105.81L546.43,110.05L578.12,110.05L578.12,38.35L518.61,38.35L518.61,110.05Z" style="fill:none;fill-rule:nonzero;stroke:rgb(149,149,149);stroke-width:0.5px;"></path>
    </g>
    <g transform="matrix(1.0003,0,0,1.0003,0,0.00709357)">
        <path d="M217.63,103.27L237.12,103.27L237.12,99.04L246.45,99.04L246.45,103.27L261.34,103.27L261.34,20.99L217.63,20.99L217.63,103.27Z" style="fill:rgb(14,125,150);fill-rule:nonzero;"></path>
    </g>
    <g transform="matrix(1.0003,0,0,1.0003,0,0.00709357)">
        <path d="M390.48,103.27L409.97,103.27L409.97,99.04L419.29,99.04L419.29,103.27L434.19,103.27L434.19,19.99L390.48,19.99L390.48,103.27Z" style="fill:none;fill-rule:nonzero;stroke:rgb(149,149,149);stroke-width:0.5px;"></path>
    </g>
    <g transform="matrix(1.0003,0,0,1.0003,0,0.00709357)">
        <path d="M261.34,96.25L275.83,96.25L275.83,92.01L285.15,92.01L285.15,96.25L304.06,96.25L304.06,16.76L261.34,16.76L261.34,96.25Z" style="fill:none;fill-rule:nonzero;stroke:rgb(149,149,149);stroke-width:0.5px;"></path>
    </g>
    <g transform="matrix(1.0003,0,0,1.0003,0,0.00709357)">
        <path d="M304.06,96.25L321.54,96.25L321.54,92.01L330.87,92.01L330.87,96.25L346.77,96.25L346.77,16.76L304.06,16.76L304.06,96.25Z" style="fill:none;fill-rule:nonzero;stroke:rgb(149,149,149);stroke-width:0.5px;"></path>
    </g>
    <g transform="matrix(1.0003,0,0,1.0003,0,0.00709357)">
        <path d="M346.77,96.25L362.25,96.25L362.25,92.01L371.58,92.01L371.58,96.25L390.48,96.25L390.48,16.76L346.77,16.76L346.77,96.25Z" style="fill:none;fill-rule:nonzero;stroke:rgb(149,149,149);stroke-width:0.5px;"></path>
    </g>
    <g transform="matrix(1.0003,0,0,1.0003,0,0.00709357)">
        <path d="M131.21,110.05L146.77,110.05L146.77,105.81L156.1,105.81L156.1,110.05L174.92,110.05L174.92,20.99L131.21,20.99L131.21,110.05Z" style="fill:none;fill-rule:nonzero;stroke:rgb(149,149,149);stroke-width:0.5px;"></path>
    </g>
    <g transform="matrix(1.0003,0,0,1.0003,0,0.00709357)">
        <rect x="70.31" y="119.53" width="61.73" height="16.53" style="fill:none;stroke:rgb(149,149,149);stroke-width:0.5px;"></rect>
    </g>
    <g transform="matrix(1.0003,0,0,1.0003,0,0.00709357)">
        <rect x="517.39" y="119.53" width="60.73" height="16.53" style="fill:none;stroke:rgb(149,149,149);stroke-width:0.5px;"></rect>
    </g>
    <g transform="matrix(1.0003,0,0,1.0003,0,0.00709357)">
        <rect x="350.71" y="116.14" width="33.05" height="16.53" style="fill:none;stroke:rgb(149,149,149);stroke-width:0.5px;"></rect>
    </g>
    <g transform="matrix(1.0003,0,0,1.0003,0,0.00709357)">
        <rect x="260.44" y="116.14" width="33.05" height="16.53" style="fill:none;stroke:rgb(149,149,149);stroke-width:0.5px;"></rect>
    </g>
    <g transform="matrix(1.0003,0,0,1.0003,0,0.00709357)">
        <path d="M132.04,122.5L260.44,122.5" style="fill:none;fill-rule:nonzero;stroke:rgb(149,149,149);stroke-width:0.5px;"></path>
    </g>
    <g transform="matrix(1.0003,0,0,1.0003,0,0.00709357)">
        <path d="M383.76,122.5L517.39,122.5" style="fill:none;fill-rule:nonzero;stroke:rgb(149,149,149);stroke-width:0.5px;"></path>
    </g>
    <g transform="matrix(1.0003,0,0,1.0003,0,0.00709357)">
        <path d="M293.5,129.81L297.95,129.81L297.95,136.06L346.26,136.06L346.26,129.81L350.71,129.81" style="fill:none;fill-rule:nonzero;stroke:rgb(149,149,149);stroke-width:0.5px;"></path>
    </g>
    <g transform="matrix(1.0003,0,0,1.0003,0,0.00709357)">
        <path d="M25.73,32L25.73,110.22L42.16,110.22L42.16,119.53L70.31,119.53L70.31,95.99L87.36,95.99L87.36,32L25.73,32Z" style="fill:none;fill-rule:nonzero;stroke:rgb(149,149,149);stroke-width:0.5px;"></path>
    </g>
    <g transform="matrix(1.0003,0,0,1.0003,0,0.00709357)">
        <path d="M578.12,110.05L578.12,119.53" style="fill:none;fill-rule:nonzero;stroke:rgb(149,149,149);stroke-width:0.5px;"></path>
    </g>
    <g transform="matrix(1,0,0,1,315,75.96)">
        <g transform="matrix(1,0,0,1,-315,-75.96)">
            <g transform="matrix(12,0,0,12,66.0215,65.1248)">
            </g>
            <text x="46px" y="65.125px" style="font-family:'ArialMT', 'Arial', sans-serif;font-size:12px;">601</text>
            <g transform="matrix(1,0,0,1,53.115,7.10543e-15)">
                <g transform="matrix(12,0,0,12,66.0215,65.1248)">
                </g>
                <text x="46px" y="65.125px" style="font-family:'ArialMT', 'Arial', sans-serif;font-size:12px;">602</text>
            </g>
            <g transform="matrix(1,0,0,1,97.0033,7.10543e-15)">
                <g transform="matrix(12,0,0,12,66.0215,65.1248)">
                </g>
                <text x="46px" y="65.125px" style="font-family:'ArialMT', 'Arial', sans-serif;font-size:12px;">603</text>
            </g>
            <g transform="matrix(1,0,0,1,141.627,7.10543e-15)">
                <g transform="matrix(12,0,0,12,66.0215,65.1248)">
                </g>
                <text x="46px" y="65.125px" style="font-family:'ArialMT', 'Arial', sans-serif;font-size:12px;">604</text>
            </g>
            <g transform="matrix(1,0,0,1,183.566,7.10543e-15)">
                <g transform="matrix(12,0,0,12,66.0215,65.1248)">
                </g>
                <text x="46px" y="65.125px" style="font-family:'ArialMT', 'Arial', sans-serif;font-size:12px;">605</text>
            </g>
            <g transform="matrix(1,0,0,1,225.201,7.10543e-15)">
                <g transform="matrix(12,0,0,12,66.0215,65.1248)">
                </g>
                <text x="46px" y="65.125px" style="font-family:'ArialMT', 'Arial', sans-serif;font-size:12px;">606</text>
            </g>
            <g transform="matrix(1,0,0,1,267.98,7.10543e-15)">
                <g transform="matrix(12,0,0,12,66.0215,65.1248)">
                </g>
                <text x="46px" y="65.125px" style="font-family:'ArialMT', 'Arial', sans-serif;font-size:12px;">607</text>
            </g>
            <g transform="matrix(1,0,0,1,309.972,7.10543e-15)">
                <g transform="matrix(12,0,0,12,66.0215,65.1248)">
                </g>
                <text x="46px" y="65.125px" style="font-family:'ArialMT', 'Arial', sans-serif;font-size:12px;">608</text>
            </g>
            <g transform="matrix(1,0,0,1,355.824,7.10543e-15)">
                <g transform="matrix(12,0,0,12,66.0215,65.1248)">
                </g>
                <text x="46px" y="65.125px" style="font-family:'ArialMT', 'Arial', sans-serif;font-size:12px;">609</text>
            </g>
            <g transform="matrix(1,0,0,1,399.639,7.10543e-15)">
                <g transform="matrix(12,0,0,12,66.0215,65.1248)">
                </g>
                <text x="46px" y="65.125px" style="font-family:'ArialMT', 'Arial', sans-serif;font-size:12px;">610</text>
            </g>
            <g transform="matrix(1,0,0,1,442.337,7.10543e-15)">
                <g transform="matrix(12,0,0,12,65.1309,65.1248)">
                </g>
                <text x="46px" y="65.125px" style="font-family:'ArialMT', 'Arial', sans-serif;font-size:12px;">61<tspan x="58.457px" y="65.125px">1</tspan></text>
            </g>
            <g transform="matrix(1,0,0,1,490.861,7.10543e-15)">
                <g transform="matrix(12,0,0,12,66.0215,65.1248)">
                </g>
                <text x="46px" y="65.125px" style="font-family:'ArialMT', 'Arial', sans-serif;font-size:12px;">612</text>
            </g>
            <rect x="0" y="0" width="630" height="151.92" style="fill:none;"></rect>
        </g>
    </g>
</svg>
