<svg width="100%" height="100%" viewBox="0 0 630 148" version="1.1" xmlns="http://www.w3.org/2000/svg" xmlns:xlink="http://www.w3.org/1999/xlink" xml:space="preserve" style="fill-rule:evenodd;clip-rule:evenodd;stroke-miterlimit:10;">
    <g transform="matrix(1.0003,0,0,1.0003,0,0.00274368)">
        <path d="M87.5,106.62L106.99,106.62L106.99,102.38L116.31,102.38L116.31,106.62L131.21,106.62L131.21,28.57L87.5,28.57L87.5,106.62Z" style="fill:none;fill-rule:nonzero;stroke:rgb(149,149,149);stroke-width:0.5px;"></path>
    </g>
    <g transform="matrix(1.0003,0,0,1.0003,0,0.00274368)">
        <path d="M174.92,106.62L193.41,106.62L193.41,102.38L202.73,102.38L202.73,106.62L217.63,106.62L217.63,17.57L174.92,17.57L174.92,106.62Z" style="fill:none;fill-rule:nonzero;stroke:rgb(149,149,149);stroke-width:0.5px;"></path>
    </g>
    <g transform="matrix(1.0003,0,0,1.0003,0,0.00274368)">
        <path d="M434.19,106.62L451.68,106.62L451.68,102.38L461,102.38L461,106.62L476.9,106.62L476.9,34.92L434.19,34.92L434.19,106.62Z" style="fill:none;fill-rule:nonzero;stroke:rgb(149,149,149);stroke-width:0.5px;"></path>
    </g>
    <g transform="matrix(1.0003,0,0,1.0003,0,0.00274368)">
        <path d="M476.9,106.62L492.39,106.62L492.39,102.38L501.71,102.38L501.71,106.62L518.61,106.62L518.61,34.92L476.9,34.92L476.9,106.62Z" style="fill:none;fill-rule:nonzero;stroke:rgb(149,149,149);stroke-width:0.5px;"></path>
    </g>
    <g transform="matrix(1.0003,0,0,1.0003,0,0.00274368)">
        <path d="M518.61,106.62L537.1,106.62L537.1,102.38L546.43,102.38L546.43,106.62L578.12,106.62L578.12,34.92L518.61,34.92L518.61,106.62Z" style="fill:none;fill-rule:nonzero;stroke:rgb(149,149,149);stroke-width:0.5px;"></path>
    </g>
    <g transform="matrix(1.0003,0,0,1.0003,0,0.00274368)">
        <path d="M217.63,99.85L237.12,99.85L237.12,95.61L246.45,95.61L246.45,99.85L261.34,99.85L261.34,17.57L217.63,17.57L217.63,99.85Z" style="fill:none;fill-rule:nonzero;stroke:rgb(149,149,149);stroke-width:0.5px;"></path>
    </g>
    <g transform="matrix(1.0003,0,0,1.0003,0,0.00274368)">
        <path d="M390.48,99.85L409.97,99.85L409.97,95.61L419.29,95.61L419.29,99.85L434.19,99.85L434.19,16.57L390.48,16.57L390.48,99.85Z" style="fill:none;fill-rule:nonzero;stroke:rgb(149,149,149);stroke-width:0.5px;"></path>
    </g>
    <g transform="matrix(1.0003,0,0,1.0003,0,0.00274368)">
        <path d="M261.34,92.82L275.83,92.82L275.83,88.59L285.15,88.59L285.15,92.82L304.06,92.82L304.06,13.34L261.34,13.34L261.34,92.82Z" style="fill:none;fill-rule:nonzero;stroke:rgb(149,149,149);stroke-width:0.5px;"></path>
    </g>
    <g transform="matrix(1.0003,0,0,1.0003,0,0.00274368)">
        <path d="M304.06,92.82L321.54,92.82L321.54,88.59L330.87,88.59L330.87,92.82L346.77,92.82L346.77,13.34L304.06,13.34L304.06,92.82Z" style="fill:none;fill-rule:nonzero;stroke:rgb(149,149,149);stroke-width:0.5px;"></path>
    </g>
    <g transform="matrix(1.0003,0,0,1.0003,0,0.00274368)">
        <path d="M346.77,92.82L362.25,92.82L362.25,88.59L371.58,88.59L371.58,92.82L390.48,92.82L390.48,13.34L346.77,13.34L346.77,92.82Z" style="fill:none;fill-rule:nonzero;stroke:rgb(149,149,149);stroke-width:0.5px;"></path>
    </g>
    <g transform="matrix(1.0003,0,0,1.0003,0,0.00274368)">
        <path d="M131.21,106.62L146.77,106.62L146.77,102.38L156.1,102.38L156.1,106.62L174.92,106.62L174.92,17.57L131.21,17.57L131.21,106.62Z" style="fill:rgb(14,125,150);fill-rule:nonzero;"></path>
    </g>
    <g transform="matrix(1.0003,0,0,1.0003,0,0.00274368)">
        <rect x="70.31" y="116.11" width="61.73" height="16.53" style="fill:none;stroke:rgb(149,149,149);stroke-width:0.5px;"></rect>
    </g>
    <g transform="matrix(1.0003,0,0,1.0003,0,0.00274368)">
        <rect x="517.39" y="116.11" width="60.73" height="16.53" style="fill:none;stroke:rgb(149,149,149);stroke-width:0.5px;"></rect>
    </g>
    <g transform="matrix(1.0003,0,0,1.0003,0,0.00274368)">
        <rect x="350.71" y="112.72" width="33.05" height="16.53" style="fill:none;stroke:rgb(149,149,149);stroke-width:0.5px;"></rect>
    </g>
    <g transform="matrix(1.0003,0,0,1.0003,0,0.00274368)">
        <rect x="260.44" y="112.72" width="33.05" height="16.53" style="fill:none;stroke:rgb(149,149,149);stroke-width:0.5px;"></rect>
    </g>
    <g transform="matrix(1.0003,0,0,1.0003,0,0.00274368)">
        <path d="M132.04,119.07L260.44,119.07" style="fill:none;fill-rule:nonzero;stroke:rgb(149,149,149);stroke-width:0.5px;"></path>
    </g>
    <g transform="matrix(1.0003,0,0,1.0003,0,0.00274368)">
        <path d="M383.76,119.07L517.39,119.07" style="fill:none;fill-rule:nonzero;stroke:rgb(149,149,149);stroke-width:0.5px;"></path>
    </g>
    <g transform="matrix(1.0003,0,0,1.0003,0,0.00274368)">
        <path d="M293.5,126.38L297.95,126.38L297.95,132.63L346.26,132.63L346.26,126.38L350.71,126.38" style="fill:none;fill-rule:nonzero;stroke:rgb(149,149,149);stroke-width:0.5px;"></path>
    </g>
    <g transform="matrix(1.0003,0,0,1.0003,0,0.00274368)">
        <path d="M25.73,28.57L25.73,106.79L42.16,106.79L42.16,116.11L70.31,116.11L70.31,92.57L87.36,92.57L87.36,28.57L25.73,28.57Z" style="fill:none;fill-rule:nonzero;stroke:rgb(149,149,149);stroke-width:0.5px;"></path>
    </g>
    <g transform="matrix(1.0003,0,0,1.0003,0,0.00274368)">
        <path d="M578.12,106.62L578.12,116.11" style="fill:none;fill-rule:nonzero;stroke:rgb(149,149,149);stroke-width:0.5px;"></path>
    </g>
    <g transform="matrix(1,0,0,1,315,73.8)">
        <g transform="matrix(1,0,0,1,-315,-73.8)">
            <g transform="matrix(1,0,0,1,0,-0.499843)">
                <g transform="matrix(12,0,0,12,66.0215,65.1248)">
                </g>
                <text x="46px" y="65.125px" style="font-family:'ArialMT', 'Arial', sans-serif;font-size:12px;">501</text>
            </g>
            <g transform="matrix(1,0,0,1,53,-0.499843)">
                <g transform="matrix(12,0,0,12,66.0215,65.1248)">
                </g>
                <text x="46px" y="65.125px" style="font-family:'ArialMT', 'Arial', sans-serif;font-size:12px;">502</text>
            </g>
            <g transform="matrix(1,0,0,1,97,-0.499843)">
                <g transform="matrix(12,0,0,12,66.0215,65.1248)">
                </g>
                <text x="46px" y="65.125px" style="font-family:'ArialMT', 'Arial', sans-serif;font-size:12px;">503</text>
            </g>
            <g transform="matrix(1,0,0,1,141,-0.499843)">
                <g transform="matrix(12,0,0,12,66.0215,65.1248)">
                </g>
                <text x="46px" y="65.125px" style="font-family:'ArialMT', 'Arial', sans-serif;font-size:12px;">504</text>
            </g>
            <g transform="matrix(1,0,0,1,183,-0.499843)">
                <g transform="matrix(12,0,0,12,66.0215,65.1248)">
                </g>
                <text x="46px" y="65.125px" style="font-family:'ArialMT', 'Arial', sans-serif;font-size:12px;">505</text>
            </g>
            <g transform="matrix(1,0,0,1,225,-0.499843)">
                <g transform="matrix(12,0,0,12,66.0215,65.1248)">
                </g>
                <text x="46px" y="65.125px" style="font-family:'ArialMT', 'Arial', sans-serif;font-size:12px;">506</text>
            </g>
            <g transform="matrix(1,0,0,1,268,-0.499843)">
                <g transform="matrix(12,0,0,12,66.0215,65.1248)">
                </g>
                <text x="46px" y="65.125px" style="font-family:'ArialMT', 'Arial', sans-serif;font-size:12px;">507</text>
            </g>
            <g transform="matrix(1,0,0,1,309,-0.499843)">
                <g transform="matrix(12,0,0,12,66.0215,65.1248)">
                </g>
                <text x="46px" y="65.125px" style="font-family:'ArialMT', 'Arial', sans-serif;font-size:12px;">508</text>
            </g>
            <g transform="matrix(1,0,0,1,355,-0.499843)">
                <g transform="matrix(12,0,0,12,66.0215,65.1248)">
                </g>
                <text x="46px" y="65.125px" style="font-family:'ArialMT', 'Arial', sans-serif;font-size:12px;">509</text>
            </g>
            <g transform="matrix(1,0,0,1,399,-0.499843)">
                <g transform="matrix(12,0,0,12,66.0215,65.1248)">
                </g>
                <text x="46px" y="65.125px" style="font-family:'ArialMT', 'Arial', sans-serif;font-size:12px;">510</text>
            </g>
            <g transform="matrix(1,0,0,1,442,-0.499843)">
                <g transform="matrix(12,0,0,12,65.1309,65.1248)">
                </g>
                <text x="46px" y="65.125px" style="font-family:'ArialMT', 'Arial', sans-serif;font-size:12px;">51<tspan x="58.457px" y="65.125px">1</tspan></text>
            </g>
            <g transform="matrix(1,0,0,1,490,-0.499843)">
                <g transform="matrix(12,0,0,12,66.0215,65.1248)">
                </g>
                <text x="46px" y="65.125px" style="font-family:'ArialMT', 'Arial', sans-serif;font-size:12px;">512</text>
            </g>
            <g transform="matrix(1,0,0,0.971564,0,0)">
                <rect x="0" y="0" width="630" height="151.92" style="fill:none;"></rect>
            </g>
        </g>
    </g>
</svg>
