<svg width="100%" height="100%" viewBox="0 0 630 158" version="1.1" xmlns="http://www.w3.org/2000/svg" xmlns:xlink="http://www.w3.org/1999/xlink" xml:space="preserve" style="fill-rule:evenodd;clip-rule:evenodd;stroke-miterlimit:10;">
    <g transform="matrix(1.0003,0,0,1.0003,0,0.0912504)">
        <path d="M69.31,121.62L41.2,121.62L41.2,110.89L25.73,110.89L25.73,21.05L131.04,21.05L131.04,111.45L82.45,111.45L82.45,108.49L69.45,108.49L69.31,121.62Z" style="fill:none;fill-rule:nonzero;stroke:rgb(149,149,149);stroke-width:0.5px;"></path>
    </g>
    <g transform="matrix(1.0003,0,0,1.0003,0,0.0912504)">
        <path d="M131.04,111.67L160.7,111.67L160.7,107.43L170.03,107.43L170.03,111.67L218.13,111.67L218.13,21.05L131.04,21.05L131.04,111.67Z" style="fill:none;fill-rule:nonzero;stroke:rgb(149,149,149);stroke-width:0.5px;"></path>
    </g>
    <g transform="matrix(1.0003,0,0,1.0003,0,0.0912504)">
        <path d="M218.13,105.52L232.96,105.52L232.96,101.28L242.28,101.28L242.28,105.52L259.44,105.52L259.44,21.05L218.13,21.05L218.13,105.52Z" style="fill:rgb(14,125,150);fill-rule:nonzero;"></path>
    </g>
    <g transform="matrix(1.0003,0,0,1.0003,0,0.0912504)">
        <path d="M347.38,105.66L362.21,105.66L362.21,101.42L371.53,101.42L371.53,105.66L391.66,105.66L391.66,16.95L347.38,16.95L347.38,105.66Z" style="fill:none;fill-rule:nonzero;stroke:rgb(149,149,149);stroke-width:0.5px;"></path>
    </g>
    <g transform="matrix(1.0003,0,0,1.0003,0,0.0912504)">
        <path d="M391.66,110.54L406.49,110.54L406.49,106.3L415.82,106.3L415.82,110.54L434.25,110.54L434.25,21.83L391.66,21.83L391.66,110.54Z" style="fill:none;fill-rule:nonzero;stroke:rgb(149,149,149);stroke-width:0.5px;"></path>
    </g>
    <g transform="matrix(1.0003,0,0,1.0003,0,0.0912504)">
        <path d="M434.25,110.54L450.88,110.54L450.88,106.3L460.21,106.3L460.21,110.54L476.84,110.54L476.84,39.62L434.25,39.62L434.25,110.54Z" style="fill:none;fill-rule:nonzero;stroke:rgb(149,149,149);stroke-width:0.5px;"></path>
    </g>
    <g transform="matrix(1.0003,0,0,1.0003,0,0.0912504)">
        <path d="M259.44,97.19L278.73,97.19L278.73,92.95L288.05,92.95L288.05,97.19L304.1,97.19L304.1,16.95L259.44,16.95L259.44,97.19Z" style="fill:none;fill-rule:nonzero;stroke:rgb(149,149,149);stroke-width:0.5px;"></path>
    </g>
    <g transform="matrix(1.0003,0,0,1.0003,0,0.0912504)">
        <path d="M304.1,97.19L320.04,97.19L320.04,92.95L329.37,92.95L329.37,97.19L347.38,97.19L347.38,16.95L304.1,16.95L304.1,97.19Z" style="fill:none;fill-rule:nonzero;stroke:rgb(149,149,149);stroke-width:0.5px;"></path>
    </g>
    <g transform="matrix(1.0003,0,0,1.0003,0,0.0912504)">
        <rect x="69.31" y="121.62" width="61.73" height="16.53" style="fill:none;stroke:rgb(149,149,149);stroke-width:0.5px;"></rect>
    </g>
    <g transform="matrix(1.0003,0,0,1.0003,0,0.0912504)">
        <rect x="516.39" y="121.62" width="61.73" height="16.53" style="fill:none;stroke:rgb(149,149,149);stroke-width:0.5px;"></rect>
    </g>
    <g transform="matrix(1.0003,0,0,1.0003,0,0.0912504)">
        <rect x="349.71" y="118.23" width="33.05" height="16.53" style="fill:none;stroke:rgb(149,149,149);stroke-width:0.5px;"></rect>
    </g>
    <g transform="matrix(1.0003,0,0,1.0003,0,0.0912504)">
        <rect x="259.44" y="118.23" width="33.05" height="16.53" style="fill:none;stroke:rgb(149,149,149);stroke-width:0.5px;"></rect>
    </g>
    <g transform="matrix(1.0003,0,0,1.0003,0,0.0912504)">
        <path d="M131.04,124.59L259.44,124.59" style="fill:none;fill-rule:nonzero;stroke:rgb(149,149,149);stroke-width:0.5px;"></path>
    </g>
    <g transform="matrix(1.0003,0,0,1.0003,0,0.0912504)">
        <path d="M382.76,124.59L516.39,124.59" style="fill:none;fill-rule:nonzero;stroke:rgb(149,149,149);stroke-width:0.5px;"></path>
    </g>
    <g transform="matrix(1.0003,0,0,1.0003,0,0.0912504)">
        <path d="M292.5,131.9L296.95,131.9L296.95,138.15L345.26,138.15L345.26,131.9L349.71,131.9" style="fill:none;fill-rule:nonzero;stroke:rgb(149,149,149);stroke-width:0.5px;"></path>
    </g>
    <g transform="matrix(1.0003,0,0,1.0003,0,0.0912504)">
        <path d="M578.12,110.54L578.12,121.62" style="fill:none;fill-rule:nonzero;stroke:rgb(149,149,149);stroke-width:0.5px;"></path>
    </g>
    <g transform="matrix(1.0003,0,0,1.0003,0,0.0912504)">
        <path d="M476.84,110.54L516.39,110.54L516.39,106.3L525.71,106.3L525.71,110.54L578.12,110.54L578.12,39.62L476.84,39.62L476.84,110.54" style="fill:none;fill-rule:nonzero;stroke:rgb(149,149,149);stroke-width:0.5px;"></path>
    </g>
    <g transform="matrix(1,0,0,1,315,78.84)">
        <g transform="matrix(1,0,0,1,-315,-78.84)">
            <g transform="matrix(1,0,0,1,21.9086,-0.499843)">
                <g transform="matrix(12,0,0,12,66.0215,65.1248)">
                </g>
                <text x="46px" y="65.125px" style="font-family:'ArialMT', 'Arial', sans-serif;font-size:12px;">701</text>
            </g>
            <g transform="matrix(1,0,0,1,118.138,-0.849825)">
                <g transform="matrix(12,0,0,12,66.0215,65.1248)">
                </g>
                <text x="46px" y="65.125px" style="font-family:'ArialMT', 'Arial', sans-serif;font-size:12px;">702</text>
            </g>
            <g transform="matrix(1,0,0,1,182.357,-0.499843)">
                <g transform="matrix(12,0,0,12,66.0215,65.1248)">
                </g>
                <text x="46px" y="65.125px" style="font-family:'ArialMT', 'Arial', sans-serif;font-size:12px;">703</text>
            </g>
            <g transform="matrix(1,0,0,1,225.355,-0.849825)">
                <g transform="matrix(12,0,0,12,66.0215,65.1248)">
                </g>
                <text x="46px" y="65.125px" style="font-family:'ArialMT', 'Arial', sans-serif;font-size:12px;">704</text>
            </g>
            <g transform="matrix(1,0,0,1,269.338,-0.499843)">
                <g transform="matrix(12,0,0,12,66.0215,65.1248)">
                </g>
                <text x="46px" y="65.125px" style="font-family:'ArialMT', 'Arial', sans-serif;font-size:12px;">705</text>
            </g>
            <g transform="matrix(1,0,0,1,313.131,-0.499843)">
                <g transform="matrix(12,0,0,12,66.0215,65.1248)">
                </g>
                <text x="46px" y="65.125px" style="font-family:'ArialMT', 'Arial', sans-serif;font-size:12px;">706</text>
            </g>
            <g transform="matrix(1,0,0,1,356.58,-0.499843)">
                <g transform="matrix(12,0,0,12,66.0215,65.1248)">
                </g>
                <text x="46px" y="65.125px" style="font-family:'ArialMT', 'Arial', sans-serif;font-size:12px;">707</text>
            </g>
            <g transform="matrix(1,0,0,1,399.182,-0.499843)">
                <g transform="matrix(12,0,0,12,66.0215,65.1248)">
                </g>
                <text x="46px" y="65.125px" style="font-family:'ArialMT', 'Arial', sans-serif;font-size:12px;">708</text>
            </g>
            <g transform="matrix(1,0,0,1,471.139,-0.499843)">
                <g transform="matrix(12,0,0,12,66.0215,65.1248)">
                </g>
                <text x="46px" y="65.125px" style="font-family:'ArialMT', 'Arial', sans-serif;font-size:12px;">709</text>
            </g>
            <g transform="matrix(1,0,0,1.04286,0,0)">
                <rect x="0" y="0" width="630" height="151.2" style="fill:none;"></rect>
            </g>
        </g>
    </g>
</svg>
