<svg width="100%" height="100%" viewBox="0 0 630 152" version="1.1" xmlns="http://www.w3.org/2000/svg" xmlns:xlink="http://www.w3.org/1999/xlink" xml:space="preserve" style="fill-rule:evenodd;clip-rule:evenodd;stroke-miterlimit:10;">
    <g transform="matrix(1.0003,0,0,1.0003,0,0.152246)">
        <path d="M434.19,109.2L451.68,109.2L451.68,104.96L461,104.96L461,109.2L476.9,109.2L476.9,37.5L434.19,37.5L434.19,109.2Z" style="fill:none;fill-rule:nonzero;stroke:rgb(149,149,149);stroke-width:0.5px;"></path>
    </g>
    <g transform="matrix(1.0003,0,0,1.0003,0,0.152246)">
        <path d="M476.4,109.2L492.89,109.2L492.89,104.96L502.21,104.96L502.21,109.2L518.11,109.2L518.11,37.5L476.4,37.5L476.4,109.2Z" style="fill:none;fill-rule:nonzero;stroke:rgb(149,149,149);stroke-width:0.5px;"></path>
    </g>
    <g transform="matrix(1.0003,0,0,1.0003,0,0.152246)">
        <path d="M518.11,109.2L535.6,109.2L535.6,104.96L544.92,104.96L544.92,109.2L559.82,109.2L559.82,37.5L518.11,37.5L518.11,109.2Z" style="fill:none;fill-rule:nonzero;stroke:rgb(149,149,149);stroke-width:0.5px;"></path>
    </g>
    <g transform="matrix(1.0003,0,0,1.0003,0,0.152246)">
        <path d="M390.48,102.43L405.97,102.43L405.97,98.19L415.29,98.19L415.29,102.43L434.19,102.43L434.19,19.14L390.48,19.14L390.48,102.43Z" style="fill:none;fill-rule:nonzero;stroke:rgb(149,149,149);stroke-width:0.5px;"></path>
    </g>
    <g transform="matrix(1.0003,0,0,1.0003,0,0.152246)">
        <path d="M261.34,95.4L275.83,95.4L275.83,91.16L285.15,91.16L285.15,95.4L304.06,95.4L304.06,15.91L261.34,15.91L261.34,95.4Z" style="fill:none;fill-rule:nonzero;stroke:rgb(149,149,149);stroke-width:0.5px;"></path>
    </g>
    <g transform="matrix(1.0003,0,0,1.0003,0,0.152246)">
        <path d="M304.06,95.4L321.54,95.4L321.54,91.16L330.87,91.16L330.87,95.4L346.77,95.4L346.77,15.91L304.06,15.91L304.06,95.4Z" style="fill:none;fill-rule:nonzero;stroke:rgb(149,149,149);stroke-width:0.5px;"></path>
    </g>
    <g transform="matrix(1.0003,0,0,1.0003,0,0.152246)">
        <path d="M346.77,95.4L362.25,95.4L362.25,91.16L371.58,91.16L371.58,95.4L390.48,95.4L390.48,15.91L346.77,15.91L346.77,95.4Z" style="fill:none;fill-rule:nonzero;stroke:rgb(149,149,149);stroke-width:0.5px;"></path>
    </g>
    <g transform="matrix(1.0003,0,0,1.0003,0,0.152246)">
        <path d="M87.5,109.93L106.99,109.93L106.99,105.7L116.31,105.7L116.31,109.93L131.21,109.93L131.21,31.89L87.5,31.89L87.5,109.93Z" style="fill:none;fill-rule:nonzero;stroke:rgb(149,149,149);stroke-width:0.5px;"></path>
    </g>
    <g transform="matrix(1.0003,0,0,1.0003,0,0.152246)">
        <path d="M174.92,109.93L193.41,109.93L193.41,105.7L202.73,105.7L202.73,109.93L217.63,109.93L217.63,20.88L174.92,20.88L174.92,109.93Z" style="fill:none;fill-rule:nonzero;stroke:rgb(149,149,149);stroke-width:0.5px;"></path>
    </g>
    <g transform="matrix(1.0003,0,0,1.0003,0,0.152246)">
        <path d="M217.63,103.16L237.12,103.16L237.12,98.92L246.45,98.92L246.45,103.16L261.34,103.16L261.34,20.88L217.63,20.88L217.63,103.16Z" style="fill:none;fill-rule:nonzero;stroke:rgb(149,149,149);stroke-width:0.5px;"></path>
    </g>
    <g transform="matrix(1.0003,0,0,1.0003,0,0.152246)">
        <path d="M131.21,109.93L146.77,109.93L146.77,105.7L156.1,105.7L156.1,109.93L174.92,109.93L174.92,20.88L131.21,20.88L131.21,109.93Z" style="fill:none;fill-rule:nonzero;stroke:rgb(149,149,149);stroke-width:0.5px;"></path>
    </g>
    <g transform="matrix(1.0003,0,0,1.0003,0,0.152246)">
        <rect x="70.31" y="119.02" width="61.73" height="16.53" style="fill:none;stroke:rgb(149,149,149);stroke-width:0.5px;"></rect>
    </g>
    <g transform="matrix(1.0003,0,0,1.0003,0,0.152246)">
        <rect x="517.39" y="119.02" width="60.73" height="16.53" style="fill:none;stroke:rgb(149,149,149);stroke-width:0.5px;"></rect>
    </g>
    <g transform="matrix(1.0003,0,0,1.0003,0,0.152246)">
        <rect x="350.71" y="115.63" width="33.05" height="16.53" style="fill:none;stroke:rgb(149,149,149);stroke-width:0.5px;"></rect>
    </g>
    <g transform="matrix(1.0003,0,0,1.0003,0,0.152246)">
        <rect x="260.44" y="115.63" width="33.05" height="16.53" style="fill:none;stroke:rgb(149,149,149);stroke-width:0.5px;"></rect>
    </g>
    <g transform="matrix(1.0003,0,0,1.0003,0,0.152246)">
        <path d="M132.04,121.99L260.44,121.99" style="fill:none;fill-rule:nonzero;stroke:rgb(149,149,149);stroke-width:0.5px;"></path>
    </g>
    <g transform="matrix(1.0003,0,0,1.0003,0,0.152246)">
        <path d="M383.76,121.99L517.39,121.99" style="fill:none;fill-rule:nonzero;stroke:rgb(149,149,149);stroke-width:0.5px;"></path>
    </g>
    <g transform="matrix(1.0003,0,0,1.0003,0,0.152246)">
        <path d="M293.5,129.3L297.95,129.3L297.95,135.55L346.26,135.55L346.26,129.3L350.71,129.3" style="fill:none;fill-rule:nonzero;stroke:rgb(149,149,149);stroke-width:0.5px;"></path>
    </g>
    <g transform="matrix(1.0003,0,0,1.0003,0,0.152246)">
        <path d="M25.73,31.49L25.73,109.71L42.16,109.71L42.16,119.02L70.31,119.02L70.31,95.49L87.36,95.49L87.36,31.49L25.73,31.49Z" style="fill:rgb(14,125,150);fill-rule:nonzero;"></path>
    </g>
    <g transform="matrix(1.0003,0,0,1.0003,0,0.152246)">
        <path d="M559.82,103.16L559.82,32.34L566.83,32.34L566.83,23.19L605.76,23.19L605.76,121.99L578.12,121.99L578.12,119.02L574.95,119.02L574.95,103.16L559.82,103.16Z" style="fill:none;fill-rule:nonzero;stroke:rgb(149,149,149);stroke-width:0.5px;"></path>
    </g>
    <g transform="matrix(1,0,0,1,315,75.6)">
        <g transform="matrix(1,0,0,1,-315,-75.6)">
            <g transform="matrix(1,0,0,1,0,-0.499843)">
                <g transform="matrix(12,0,0,12,66.0215,65.1248)">
                </g>
                <text x="46px" y="65.125px" style="font-family:'ArialMT', 'Arial', sans-serif;font-size:12px;">401</text>
            </g>
            <g transform="matrix(1,0,0,1,53,-0.499843)">
                <g transform="matrix(12,0,0,12,66.0215,65.1248)">
                </g>
                <text x="46px" y="65.125px" style="font-family:'ArialMT', 'Arial', sans-serif;font-size:12px;">402</text>
            </g>
            <g transform="matrix(1,0,0,1,97,-0.499843)">
                <g transform="matrix(12,0,0,12,66.0215,65.1248)">
                </g>
                <text x="46px" y="65.125px" style="font-family:'ArialMT', 'Arial', sans-serif;font-size:12px;">403</text>
            </g>
            <g transform="matrix(1,0,0,1,141,-0.499843)">
                <g transform="matrix(12,0,0,12,66.0215,65.1248)">
                </g>
                <text x="46px" y="65.125px" style="font-family:'ArialMT', 'Arial', sans-serif;font-size:12px;">404</text>
            </g>
            <g transform="matrix(1,0,0,1,183,-0.499843)">
                <g transform="matrix(12,0,0,12,66.0215,65.1248)">
                </g>
                <text x="46px" y="65.125px" style="font-family:'ArialMT', 'Arial', sans-serif;font-size:12px;">405</text>
            </g>
            <g transform="matrix(1,0,0,1,225,-0.499843)">
                <g transform="matrix(12,0,0,12,66.0215,65.1248)">
                </g>
                <text x="46px" y="65.125px" style="font-family:'ArialMT', 'Arial', sans-serif;font-size:12px;">406</text>
            </g>
            <g transform="matrix(1,0,0,1,267,-0.499843)">
                <g transform="matrix(12,0,0,12,66.0215,65.1248)">
                </g>
                <text x="46px" y="65.125px" style="font-family:'ArialMT', 'Arial', sans-serif;font-size:12px;">407</text>
            </g>
            <g transform="matrix(1,0,0,1,309,-0.499843)">
                <g transform="matrix(12,0,0,12,66.0215,65.1248)">
                </g>
                <text x="46px" y="65.125px" style="font-family:'ArialMT', 'Arial', sans-serif;font-size:12px;">408</text>
            </g>
            <g transform="matrix(1,0,0,1,355,-0.499843)">
                <g transform="matrix(12,0,0,12,66.0215,65.1248)">
                </g>
                <text x="46px" y="65.125px" style="font-family:'ArialMT', 'Arial', sans-serif;font-size:12px;">409</text>
            </g>
            <g transform="matrix(1,0,0,1,399,-0.499843)">
                <g transform="matrix(12,0,0,12,66.0215,65.1248)">
                </g>
                <text x="46px" y="65.125px" style="font-family:'ArialMT', 'Arial', sans-serif;font-size:12px;">410</text>
            </g>
            <g transform="matrix(1,0,0,1,442,-0.499843)">
                <g transform="matrix(12,0,0,12,65.1309,65.1248)">
                </g>
                <text x="46px" y="65.125px" style="font-family:'ArialMT', 'Arial', sans-serif;font-size:12px;">41<tspan x="58.457px" y="65.125px">1</tspan></text>
            </g>
            <g transform="matrix(1,0,0,1,482.628,-0.499843)">
                <g transform="matrix(12,0,0,12,66.0215,65.1248)">
                </g>
                <text x="46px" y="65.125px" style="font-family:'ArialMT', 'Arial', sans-serif;font-size:12px;">412</text>
            </g>
            <rect x="0" y="0" width="630" height="151.2" style="fill:none;"></rect>
        </g>
    </g>
</svg>
